<mxfile host="app.diagrams.net" agent="Mozilla/5.0 (Windows NT 10.0; Win64; x64; rv:143.0) Gecko/20100101 Firefox/143.0" version="28.2.5">
  <diagram name="Страница-1" id="2cc2d294-239b-6f36-4eb3-2b256d932051">
    <mxGraphModel dx="1356" dy="625" grid="0" gridSize="10" guides="1" tooltips="1" connect="1" arrows="1" fold="1" page="0" pageScale="1" pageWidth="827" pageHeight="1169" background="#FFFFFF" math="0" shadow="0">
      <root>
        <mxCell id="0" />
        <mxCell id="1" parent="0" />
        <mxCell id="actor_client" value="Клиент" style="shape=umlActor;verticalLabelPosition=bottom;verticalAlign=top;html=1;outlineConnect=0;" parent="1" vertex="1">
          <mxGeometry x="80" y="200" width="30" height="60" as="geometry" />
        </mxCell>
        <mxCell id="actor_admin" value="Администратор" style="shape=umlActor;verticalLabelPosition=bottom;verticalAlign=top;html=1;outlineConnect=0;" parent="1" vertex="1">
          <mxGeometry x="80" y="400" width="30" height="60" as="geometry" />
        </mxCell>
        <mxCell id="actor_master" value="Мастер" style="shape=umlActor;verticalLabelPosition=bottom;verticalAlign=top;html=1;outlineConnect=0;" parent="1" vertex="1">
          <mxGeometry x="80" y="600" width="30" height="60" as="geometry" />
        </mxCell>
        <mxCell id="actor_manager" value="Управляющий" style="shape=umlActor;verticalLabelPosition=bottom;verticalAlign=top;html=1;outlineConnect=0;" parent="1" vertex="1">
          <mxGeometry x="914" y="397" width="30" height="60" as="geometry" />
        </mxCell>
        <mxCell id="uc_online_booking" value="Онлайн-запись на услугу" style="ellipse;whiteSpace=wrap;html=1;aspect=fixed;" parent="1" vertex="1">
          <mxGeometry x="280" y="200" width="120" height="60" as="geometry" />
        </mxCell>
        <mxCell id="uc_cancel_booking" value="Отмена записи" style="ellipse;whiteSpace=wrap;html=1;aspect=fixed;" parent="1" vertex="1">
          <mxGeometry x="280" y="280" width="120" height="60" as="geometry" />
        </mxCell>
        <mxCell id="uc_manage_clients" value="Управление клиентской базой" style="ellipse;whiteSpace=wrap;html=1;aspect=fixed;" parent="1" vertex="1">
          <mxGeometry x="280" y="450" width="120" height="60" as="geometry" />
        </mxCell>
        <mxCell id="uc_mark_service_completed" value="Отметка о выполнении услуги" style="ellipse;whiteSpace=wrap;html=1;aspect=fixed;" parent="1" vertex="1">
          <mxGeometry x="280" y="600" width="120" height="60" as="geometry" />
        </mxCell>
        <mxCell id="uc_generate_reports" value="Формирование отчетности" style="ellipse;whiteSpace=wrap;html=1;aspect=fixed;" parent="1" vertex="1">
          <mxGeometry x="600" y="360" width="120" height="60" as="geometry" />
        </mxCell>
        <mxCell id="uc_calculate_cost" value="Расчет стоимости" style="ellipse;whiteSpace=wrap;html=1;aspect=fixed;" parent="1" vertex="1">
          <mxGeometry x="600" y="280" width="120" height="60" as="geometry" />
        </mxCell>
        <mxCell id="uc_check_schedule" value="Проверка расписания" style="ellipse;whiteSpace=wrap;html=1;aspect=fixed;" parent="1" vertex="1">
          <mxGeometry x="600" y="200" width="120" height="60" as="geometry" />
        </mxCell>
        <mxCell id="uc_view_schedule" value="Просмотр расписания" style="ellipse;whiteSpace=wrap;html=1;aspect=fixed;" parent="1" vertex="1">
          <mxGeometry x="280" y="350" width="120" height="60" as="geometry" />
        </mxCell>
        <mxCell id="uc_view_history" value="Просмотр истории" style="ellipse;whiteSpace=wrap;html=1;aspect=fixed;" parent="1" vertex="1">
          <mxGeometry x="280" y="520" width="120" height="60" as="geometry" />
        </mxCell>
        <mxCell id="uc_register_client" value="Регистрация клиента" style="ellipse;whiteSpace=wrap;html=1;aspect=fixed;" parent="1" vertex="1">
          <mxGeometry x="280" y="670" width="120" height="60" as="geometry" />
        </mxCell>
        <mxCell id="uc_view_stats" value="Просмотр статистики" style="ellipse;whiteSpace=wrap;html=1;aspect=fixed;" parent="1" vertex="1">
          <mxGeometry x="600" y="430" width="120" height="60" as="geometry" />
        </mxCell>
        <mxCell id="link_client1" value="" style="endArrow=classic;html=1;rounded=0;entryX=0;entryY=0.5;entryDx=0;entryDy=0;" parent="1" source="actor_client" target="uc_online_booking" edge="1">
          <mxGeometry width="50" height="50" relative="1" as="geometry">
            <mxPoint x="110" y="230" as="sourcePoint" />
            <mxPoint x="160" y="230" as="targetPoint" />
          </mxGeometry>
        </mxCell>
        <mxCell id="link_client2" value="" style="endArrow=classic;html=1;rounded=0;entryX=0;entryY=0.5;entryDx=0;entryDy=0;" parent="1" source="actor_client" target="uc_cancel_booking" edge="1">
          <mxGeometry width="50" height="50" relative="1" as="geometry">
            <mxPoint x="110" y="230" as="sourcePoint" />
            <mxPoint x="160" y="230" as="targetPoint" />
          </mxGeometry>
        </mxCell>
        <mxCell id="link_client3" value="" style="endArrow=classic;html=1;rounded=0;entryX=0;entryY=0.5;entryDx=0;entryDy=0;" parent="1" source="actor_client" target="uc_view_schedule" edge="1">
          <mxGeometry width="50" height="50" relative="1" as="geometry">
            <mxPoint x="110" y="230" as="sourcePoint" />
            <mxPoint x="160" y="280" as="targetPoint" />
          </mxGeometry>
        </mxCell>
        <mxCell id="link_client4" value="" style="endArrow=classic;html=1;rounded=0;entryX=0;entryY=0.5;entryDx=0;entryDy=0;" parent="1" source="actor_client" target="uc_view_history" edge="1">
          <mxGeometry width="50" height="50" relative="1" as="geometry">
            <mxPoint x="110" y="230" as="sourcePoint" />
            <mxPoint x="160" y="280" as="targetPoint" />
          </mxGeometry>
        </mxCell>
        <mxCell id="link_admin1" value="" style="endArrow=classic;html=1;rounded=0;entryX=0;entryY=0.5;entryDx=0;entryDy=0;" parent="1" source="actor_admin" target="uc_manage_clients" edge="1">
          <mxGeometry width="50" height="50" relative="1" as="geometry">
            <mxPoint x="110" y="430" as="sourcePoint" />
            <mxPoint x="160" y="380" as="targetPoint" />
          </mxGeometry>
        </mxCell>
        <mxCell id="link_admin2" value="" style="endArrow=classic;html=1;rounded=0;entryX=0;entryY=0.5;entryDx=0;entryDy=0;" parent="1" source="actor_admin" target="uc_register_client" edge="1">
          <mxGeometry width="50" height="50" relative="1" as="geometry">
            <mxPoint x="110" y="430" as="sourcePoint" />
            <mxPoint x="160" y="430" as="targetPoint" />
          </mxGeometry>
        </mxCell>
        <mxCell id="link_admin3" value="" style="endArrow=classic;html=1;rounded=0;entryX=0;entryY=0.5;entryDx=0;entryDy=0;" parent="1" source="actor_admin" target="uc_online_booking" edge="1">
          <mxGeometry width="50" height="50" relative="1" as="geometry">
            <mxPoint x="110" y="430" as="sourcePoint" />
            <mxPoint x="160" y="380" as="targetPoint" />
          </mxGeometry>
        </mxCell>
        <mxCell id="link_master1" value="" style="endArrow=classic;html=1;rounded=0;entryX=0;entryY=0.5;entryDx=0;entryDy=0;" parent="1" source="actor_master" target="uc_mark_service_completed" edge="1">
          <mxGeometry width="50" height="50" relative="1" as="geometry">
            <mxPoint x="110" y="630" as="sourcePoint" />
            <mxPoint x="160" y="630" as="targetPoint" />
          </mxGeometry>
        </mxCell>
        <mxCell id="link_master2" value="" style="endArrow=classic;html=1;rounded=0;entryX=0;entryY=0.5;entryDx=0;entryDy=0;" parent="1" source="actor_master" target="uc_view_schedule" edge="1">
          <mxGeometry width="50" height="50" relative="1" as="geometry">
            <mxPoint x="110" y="630" as="sourcePoint" />
            <mxPoint x="160" y="580" as="targetPoint" />
          </mxGeometry>
        </mxCell>
        <mxCell id="link_manager1" value="" style="endArrow=classic;html=1;rounded=0;entryX=1;entryY=0.5;entryDx=0;entryDy=0;" parent="1" source="actor_manager" target="uc_generate_reports" edge="1">
          <mxGeometry width="50" height="50" relative="1" as="geometry">
            <mxPoint x="944" y="427" as="sourcePoint" />
            <mxPoint x="894" y="377" as="targetPoint" />
          </mxGeometry>
        </mxCell>
        <mxCell id="link_manager2" value="" style="endArrow=classic;html=1;rounded=0;entryX=1;entryY=0.5;entryDx=0;entryDy=0;" parent="1" source="actor_manager" target="uc_view_stats" edge="1">
          <mxGeometry width="50" height="50" relative="1" as="geometry">
            <mxPoint x="944" y="427" as="sourcePoint" />
            <mxPoint x="894" y="427" as="targetPoint" />
          </mxGeometry>
        </mxCell>
        <mxCell id="include2" value="include" style="endArrow=classic;html=1;rounded=0;exitX=1;exitY=0.5;exitDx=0;exitDy=0;entryX=0;entryY=0.5;entryDx=0;entryDy=0;dashed=1;" parent="1" source="uc_online_booking" target="uc_check_schedule" edge="1">
          <mxGeometry width="50" height="50" relative="1" as="geometry">
            <mxPoint x="400" y="230" as="sourcePoint" />
            <mxPoint x="450" y="230" as="targetPoint" />
          </mxGeometry>
        </mxCell>
        <mxCell id="include3" value="include" style="endArrow=classic;html=1;rounded=0;exitX=1;exitY=0.5;exitDx=0;exitDy=0;entryX=0;entryY=0.5;entryDx=0;entryDy=0;dashed=1;" parent="1" source="uc_online_booking" target="uc_calculate_cost" edge="1">
          <mxGeometry width="50" height="50" relative="1" as="geometry">
            <mxPoint x="400" y="230" as="sourcePoint" />
            <mxPoint x="450" y="230" as="targetPoint" />
          </mxGeometry>
        </mxCell>
        <mxCell id="include6" value="include" style="endArrow=classic;html=1;rounded=0;exitX=1;exitY=0.5;exitDx=0;exitDy=0;entryX=0;entryY=0.5;entryDx=0;entryDy=0;dashed=1;" parent="1" source="uc_manage_clients" target="uc_calculate_cost" edge="1">
          <mxGeometry width="50" height="50" relative="1" as="geometry">
            <mxPoint x="400" y="480" as="sourcePoint" />
            <mxPoint x="450" y="480" as="targetPoint" />
          </mxGeometry>
        </mxCell>
        <mxCell id="include7" value="include" style="endArrow=classic;html=1;rounded=0;exitX=0;exitY=0.5;exitDx=0;exitDy=0;entryX=0;entryY=0.5;entryDx=0;entryDy=0;dashed=1;" parent="1" source="uc_generate_reports" target="uc_calculate_cost" edge="1">
          <mxGeometry width="50" height="50" relative="1" as="geometry">
            <mxPoint x="784" y="427" as="sourcePoint" />
            <mxPoint x="734" y="427" as="targetPoint" />
          </mxGeometry>
        </mxCell>
        <mxCell id="title" value="Диаграмма вариантов использования системы автоматизации парикмахерской" style="text;html=1;strokeColor=none;fillColor=none;align=center;verticalAlign=middle;whiteSpace=wrap;rounded=0;fontSize=16;fontStyle=1" parent="1" vertex="1">
          <mxGeometry x="250" y="40" width="350" height="30" as="geometry" />
        </mxCell>
      </root>
    </mxGraphModel>
  </diagram>
</mxfile>
